# Blender 4.1.1
# www.blender.org
mtllib shapes.mtl
o rect2
v -0.005662 0.000000 -0.195685
v -0.005662 0.000000 -0.195685
v -0.005482 0.000000 -0.197791
v -0.004983 0.000000 -0.199547
v -0.004230 0.000000 -0.200984
v -0.003285 0.000000 -0.202136
v -0.002213 0.000000 -0.203032
v -0.001078 0.000000 -0.203706
v 0.000058 0.000000 -0.204189
v 0.001129 0.000000 -0.204512
v 0.002074 0.000000 -0.204709
v 0.002827 0.000000 -0.204809
v 0.003326 0.000000 -0.204847
v 0.003507 0.000000 -0.204852
v 0.502165 0.000000 -0.204852
v 0.504271 0.000000 -0.204672
v 0.506028 0.000000 -0.204173
v 0.507465 0.000000 -0.203420
v 0.508617 0.000000 -0.202475
v 0.509514 0.000000 -0.201404
v 0.510188 0.000000 -0.200269
v 0.510670 0.000000 -0.199133
v 0.510994 0.000000 -0.198062
v 0.511190 0.000000 -0.197117
v 0.511291 0.000000 -0.196364
v 0.511328 0.000000 -0.195866
v 0.511334 0.000000 -0.195685
v 0.511334 0.000000 -0.195685
v 0.511153 0.000000 -0.193579
v 0.510654 0.000000 -0.191823
v 0.509901 0.000000 -0.190385
v 0.508956 0.000000 -0.189234
v 0.507885 0.000000 -0.188338
v 0.506749 0.000000 -0.187664
v 0.505614 0.000000 -0.187181
v 0.504542 0.000000 -0.186857
v 0.503597 0.000000 -0.186661
v 0.502844 0.000000 -0.186561
v 0.502345 0.000000 -0.186523
v 0.502165 0.000000 -0.186518
v 0.003507 0.000000 -0.186518
v 0.001400 0.000000 -0.186698
v -0.000356 0.000000 -0.187197
v -0.001794 0.000000 -0.187950
v -0.002946 0.000000 -0.188895
v -0.003842 0.000000 -0.189966
v -0.004516 0.000000 -0.191101
v -0.004999 0.000000 -0.192237
v -0.005323 0.000000 -0.193308
v -0.005519 0.000000 -0.194252
v -0.005620 0.000000 -0.195006
v -0.005657 0.000000 -0.195504
vn -0.0000 1.0000 -0.0000
vt 0.235294 0.000000
vt 0.274510 0.000000
vt 0.254902 0.000000
vt 0.294118 0.000000
vt 0.215686 0.000000
vt 0.196078 0.000000
vt 0.176471 0.000000
vt 0.313726 0.000000
vt 0.156863 0.000000
vt 0.137255 0.000000
vt 0.333333 0.000000
vt 0.117647 0.000000
vt 0.352941 0.000000
vt 0.098039 0.000000
vt 0.372549 0.000000
vt 0.078431 0.000000
vt 0.392157 0.000000
vt 0.058824 0.000000
vt 0.411765 0.000000
vt 0.039216 0.000000
vt 0.431373 0.000000
vt 0.450980 0.000000
vt 0.000000 0.000000
vt 0.470588 0.000000
vt 0.490196 0.000000
vt 0.509804 0.000000
vt 1.000000 0.000000
vt 0.549020 0.000000
vt 0.980392 0.000000
vt 0.960784 0.000000
vt 0.941176 0.000000
vt 0.568627 0.000000
vt 0.921569 0.000000
vt 0.901961 0.000000
vt 0.588235 0.000000
vt 0.882353 0.000000
vt 0.607843 0.000000
vt 0.862745 0.000000
vt 0.627451 0.000000
vt 0.843137 0.000000
vt 0.647059 0.000000
vt 0.823529 0.000000
vt 0.666667 0.000000
vt 0.803922 0.000000
vt 0.686275 0.000000
vt 0.705882 0.000000
vt 0.784314 0.000000
vt 0.725490 0.000000
vt 0.745098 0.000000
vt 0.764706 0.000000
s 0
usemtl SVGMat.004
f 13/1/1 15/2/1 14/3/1
f 13/1/1 16/4/1 15/2/1
f 12/5/1 16/4/1 13/1/1
f 11/6/1 16/4/1 12/5/1
f 10/7/1 16/4/1 11/6/1
f 10/7/1 17/8/1 16/4/1
f 9/9/1 17/8/1 10/7/1
f 8/10/1 17/8/1 9/9/1
f 8/10/1 18/11/1 17/8/1
f 7/12/1 18/11/1 8/10/1
f 7/12/1 19/13/1 18/11/1
f 6/14/1 19/13/1 7/12/1
f 6/14/1 20/15/1 19/13/1
f 5/16/1 20/15/1 6/14/1
f 5/16/1 21/17/1 20/15/1
f 4/18/1 21/17/1 5/16/1
f 4/18/1 22/19/1 21/17/1
f 3/20/1 22/19/1 4/18/1
f 3/20/1 23/21/1 22/19/1
f 3/20/1 24/22/1 23/21/1
f 1/23/1 24/22/1 3/20/1
f 1/23/1 25/24/1 24/22/1
f 1/23/1 26/25/1 25/24/1
f 1/23/1 27/26/1 26/25/1
f 52/27/1 27/26/1 1/23/1
f 52/27/1 29/28/1 27/26/1
f 51/29/1 29/28/1 52/27/1
f 50/30/1 29/28/1 51/29/1
f 49/31/1 29/28/1 50/30/1
f 49/31/1 30/32/1 29/28/1
f 48/33/1 30/32/1 49/31/1
f 47/34/1 30/32/1 48/33/1
f 47/34/1 31/35/1 30/32/1
f 46/36/1 31/35/1 47/34/1
f 46/36/1 32/37/1 31/35/1
f 45/38/1 32/37/1 46/36/1
f 45/38/1 33/39/1 32/37/1
f 44/40/1 33/39/1 45/38/1
f 44/40/1 34/41/1 33/39/1
f 43/42/1 34/41/1 44/40/1
f 43/42/1 35/43/1 34/41/1
f 42/44/1 35/43/1 43/42/1
f 42/44/1 36/45/1 35/43/1
f 42/44/1 37/46/1 36/45/1
f 41/47/1 37/46/1 42/44/1
f 41/47/1 38/48/1 37/46/1
f 41/47/1 39/49/1 38/48/1
f 41/47/1 40/50/1 39/49/1
o rect2
v -0.005662 0.000000 -0.195685
v -0.005662 0.000000 -0.195685
v -0.005482 0.000000 -0.197791
v -0.004983 0.000000 -0.199547
v -0.004230 0.000000 -0.200984
v -0.003285 0.000000 -0.202136
v -0.002213 0.000000 -0.203032
v -0.001078 0.000000 -0.203706
v 0.000058 0.000000 -0.204189
v 0.001129 0.000000 -0.204512
v 0.002074 0.000000 -0.204709
v 0.002827 0.000000 -0.204809
v 0.003326 0.000000 -0.204847
v 0.003507 0.000000 -0.204852
v 0.502165 0.000000 -0.204852
v 0.504271 0.000000 -0.204672
v 0.506028 0.000000 -0.204173
v 0.507465 0.000000 -0.203420
v 0.508617 0.000000 -0.202475
v 0.509514 0.000000 -0.201404
v 0.510188 0.000000 -0.200269
v 0.510670 0.000000 -0.199133
v 0.510994 0.000000 -0.198062
v 0.511190 0.000000 -0.197117
v 0.511291 0.000000 -0.196364
v 0.511328 0.000000 -0.195866
v 0.511334 0.000000 -0.195685
v 0.511334 0.000000 -0.195685
v 0.511153 0.000000 -0.193579
v 0.510654 0.000000 -0.191823
v 0.509901 0.000000 -0.190385
v 0.508956 0.000000 -0.189234
v 0.507885 0.000000 -0.188338
v 0.506749 0.000000 -0.187664
v 0.505614 0.000000 -0.187181
v 0.504542 0.000000 -0.186857
v 0.503597 0.000000 -0.186661
v 0.502844 0.000000 -0.186561
v 0.502345 0.000000 -0.186523
v 0.502165 0.000000 -0.186518
v 0.003507 0.000000 -0.186518
v 0.001400 0.000000 -0.186698
v -0.000356 0.000000 -0.187197
v -0.001794 0.000000 -0.187950
v -0.002946 0.000000 -0.188895
v -0.003842 0.000000 -0.189966
v -0.004516 0.000000 -0.191101
v -0.004999 0.000000 -0.192237
v -0.005323 0.000000 -0.193308
v -0.005519 0.000000 -0.194252
v -0.005620 0.000000 -0.195006
v -0.005657 0.000000 -0.195504
vn -0.0000 1.0000 -0.0000
vt 0.235294 0.000000
vt 0.274510 0.000000
vt 0.254902 0.000000
vt 0.294118 0.000000
vt 0.215686 0.000000
vt 0.196078 0.000000
vt 0.176471 0.000000
vt 0.313726 0.000000
vt 0.156863 0.000000
vt 0.137255 0.000000
vt 0.333333 0.000000
vt 0.117647 0.000000
vt 0.352941 0.000000
vt 0.098039 0.000000
vt 0.372549 0.000000
vt 0.078431 0.000000
vt 0.392157 0.000000
vt 0.058824 0.000000
vt 0.411765 0.000000
vt 0.039216 0.000000
vt 0.431373 0.000000
vt 0.450980 0.000000
vt 0.000000 0.000000
vt 0.470588 0.000000
vt 0.490196 0.000000
vt 0.509804 0.000000
vt 1.000000 0.000000
vt 0.549020 0.000000
vt 0.980392 0.000000
vt 0.960784 0.000000
vt 0.941176 0.000000
vt 0.568627 0.000000
vt 0.921569 0.000000
vt 0.901961 0.000000
vt 0.588235 0.000000
vt 0.882353 0.000000
vt 0.607843 0.000000
vt 0.862745 0.000000
vt 0.627451 0.000000
vt 0.843137 0.000000
vt 0.647059 0.000000
vt 0.823529 0.000000
vt 0.666667 0.000000
vt 0.803922 0.000000
vt 0.686275 0.000000
vt 0.705882 0.000000
vt 0.784314 0.000000
vt 0.725490 0.000000
vt 0.745098 0.000000
vt 0.764706 0.000000
s 0
usemtl SVGMat.004
f 65/51/2 67/52/2 66/53/2
f 65/51/2 68/54/2 67/52/2
f 64/55/2 68/54/2 65/51/2
f 63/56/2 68/54/2 64/55/2
f 62/57/2 68/54/2 63/56/2
f 62/57/2 69/58/2 68/54/2
f 61/59/2 69/58/2 62/57/2
f 60/60/2 69/58/2 61/59/2
f 60/60/2 70/61/2 69/58/2
f 59/62/2 70/61/2 60/60/2
f 59/62/2 71/63/2 70/61/2
f 58/64/2 71/63/2 59/62/2
f 58/64/2 72/65/2 71/63/2
f 57/66/2 72/65/2 58/64/2
f 57/66/2 73/67/2 72/65/2
f 56/68/2 73/67/2 57/66/2
f 56/68/2 74/69/2 73/67/2
f 55/70/2 74/69/2 56/68/2
f 55/70/2 75/71/2 74/69/2
f 55/70/2 76/72/2 75/71/2
f 53/73/2 76/72/2 55/70/2
f 53/73/2 77/74/2 76/72/2
f 53/73/2 78/75/2 77/74/2
f 53/73/2 79/76/2 78/75/2
f 104/77/2 79/76/2 53/73/2
f 104/77/2 81/78/2 79/76/2
f 103/79/2 81/78/2 104/77/2
f 102/80/2 81/78/2 103/79/2
f 101/81/2 81/78/2 102/80/2
f 101/81/2 82/82/2 81/78/2
f 100/83/2 82/82/2 101/81/2
f 99/84/2 82/82/2 100/83/2
f 99/84/2 83/85/2 82/82/2
f 98/86/2 83/85/2 99/84/2
f 98/86/2 84/87/2 83/85/2
f 97/88/2 84/87/2 98/86/2
f 97/88/2 85/89/2 84/87/2
f 96/90/2 85/89/2 97/88/2
f 96/90/2 86/91/2 85/89/2
f 95/92/2 86/91/2 96/90/2
f 95/92/2 87/93/2 86/91/2
f 94/94/2 87/93/2 95/92/2
f 94/94/2 88/95/2 87/93/2
f 94/94/2 89/96/2 88/95/2
f 93/97/2 89/96/2 94/94/2
f 93/97/2 90/98/2 89/96/2
f 93/97/2 91/99/2 90/98/2
f 93/97/2 92/100/2 91/99/2
o path2
v 0.437249 0.000000 -0.195685
v 0.437868 0.000000 -0.204883
v 0.439673 0.000000 -0.213706
v 0.442582 0.000000 -0.222073
v 0.446514 0.000000 -0.229904
v 0.451387 0.000000 -0.237116
v 0.457122 0.000000 -0.243630
v 0.463637 0.000000 -0.249364
v 0.470852 0.000000 -0.254236
v 0.478684 0.000000 -0.258168
v 0.487053 0.000000 -0.261076
v 0.495878 0.000000 -0.262880
v 0.505077 0.000000 -0.263499
v 0.514277 0.000000 -0.262880
v 0.523102 0.000000 -0.261076
v 0.531471 0.000000 -0.258168
v 0.539303 0.000000 -0.254236
v 0.546517 0.000000 -0.249364
v 0.553032 0.000000 -0.243630
v 0.558767 0.000000 -0.237116
v 0.563641 0.000000 -0.229904
v 0.567573 0.000000 -0.222073
v 0.570482 0.000000 -0.213706
v 0.572287 0.000000 -0.204883
v 0.572906 0.000000 -0.195685
v 0.572287 0.000000 -0.186487
v 0.570482 0.000000 -0.177664
v 0.567573 0.000000 -0.169297
v 0.563641 0.000000 -0.161466
v 0.558767 0.000000 -0.154254
v 0.553032 0.000000 -0.147740
v 0.546517 0.000000 -0.142006
v 0.539303 0.000000 -0.137133
v 0.531471 0.000000 -0.133202
v 0.523102 0.000000 -0.130294
v 0.514277 0.000000 -0.128490
v 0.505077 0.000000 -0.127871
v 0.495878 0.000000 -0.128490
v 0.487053 0.000000 -0.130294
v 0.478684 0.000000 -0.133202
v 0.470852 0.000000 -0.137133
v 0.463637 0.000000 -0.142006
v 0.457122 0.000000 -0.147740
v 0.451387 0.000000 -0.154254
v 0.446514 0.000000 -0.161466
v 0.442582 0.000000 -0.169297
v 0.439673 0.000000 -0.177664
v 0.437868 0.000000 -0.186487
vn -0.0000 1.0000 -0.0000
vt 0.234043 0.000000
vt 0.276596 0.000000
vt 0.255319 0.000000
vt 0.212766 0.000000
vt 0.297872 0.000000
vt 0.191489 0.000000
vt 0.319149 0.000000
vt 0.170213 0.000000
vt 0.340426 0.000000
vt 0.148936 0.000000
vt 0.361702 0.000000
vt 0.127660 0.000000
vt 0.382979 0.000000
vt 0.106383 0.000000
vt 0.404255 0.000000
vt 0.085106 0.000000
vt 0.425532 0.000000
vt 0.063830 0.000000
vt 0.446809 0.000000
vt 0.042553 0.000000
vt 0.468085 0.000000
vt 0.021277 0.000000
vt 0.489362 0.000000
vt 0.000000 0.000000
vt 0.510638 0.000000
vt 1.000000 0.000000
vt 0.531915 0.000000
vt 0.553191 0.000000
vt 0.978723 0.000000
vt 0.574468 0.000000
vt 0.957447 0.000000
vt 0.595745 0.000000
vt 0.936170 0.000000
vt 0.617021 0.000000
vt 0.914894 0.000000
vt 0.638298 0.000000
vt 0.893617 0.000000
vt 0.659574 0.000000
vt 0.872340 0.000000
vt 0.680851 0.000000
vt 0.851064 0.000000
vt 0.702128 0.000000
vt 0.829787 0.000000
vt 0.723404 0.000000
vt 0.808511 0.000000
vt 0.744681 0.000000
vt 0.787234 0.000000
vt 0.765957 0.000000
s 0
usemtl SVGMat.005
f 116/101/3 118/102/3 117/103/3
f 115/104/3 118/102/3 116/101/3
f 115/104/3 119/105/3 118/102/3
f 114/106/3 119/105/3 115/104/3
f 114/106/3 120/107/3 119/105/3
f 113/108/3 120/107/3 114/106/3
f 113/108/3 121/109/3 120/107/3
f 112/110/3 121/109/3 113/108/3
f 112/110/3 122/111/3 121/109/3
f 111/112/3 122/111/3 112/110/3
f 111/112/3 123/113/3 122/111/3
f 110/114/3 123/113/3 111/112/3
f 110/114/3 124/115/3 123/113/3
f 109/116/3 124/115/3 110/114/3
f 109/116/3 125/117/3 124/115/3
f 108/118/3 125/117/3 109/116/3
f 108/118/3 126/119/3 125/117/3
f 107/120/3 126/119/3 108/118/3
f 107/120/3 127/121/3 126/119/3
f 106/122/3 127/121/3 107/120/3
f 106/122/3 128/123/3 127/121/3
f 105/124/3 128/123/3 106/122/3
f 105/124/3 129/125/3 128/123/3
f 152/126/3 129/125/3 105/124/3
f 152/126/3 130/127/3 129/125/3
f 152/126/3 131/128/3 130/127/3
f 151/129/3 131/128/3 152/126/3
f 151/129/3 132/130/3 131/128/3
f 150/131/3 132/130/3 151/129/3
f 150/131/3 133/132/3 132/130/3
f 149/133/3 133/132/3 150/131/3
f 149/133/3 134/134/3 133/132/3
f 148/135/3 134/134/3 149/133/3
f 148/135/3 135/136/3 134/134/3
f 147/137/3 135/136/3 148/135/3
f 147/137/3 136/138/3 135/136/3
f 146/139/3 136/138/3 147/137/3
f 146/139/3 137/140/3 136/138/3
f 145/141/3 137/140/3 146/139/3
f 145/141/3 138/142/3 137/140/3
f 144/143/3 138/142/3 145/141/3
f 144/143/3 139/144/3 138/142/3
f 143/145/3 139/144/3 144/143/3
f 143/145/3 140/146/3 139/144/3
f 142/147/3 140/146/3 143/145/3
f 142/147/3 141/148/3 140/146/3
o path2
v 0.437249 0.000000 -0.195685
v 0.437868 0.000000 -0.204883
v 0.439673 0.000000 -0.213706
v 0.442582 0.000000 -0.222073
v 0.446514 0.000000 -0.229904
v 0.451387 0.000000 -0.237116
v 0.457122 0.000000 -0.243630
v 0.463637 0.000000 -0.249364
v 0.470852 0.000000 -0.254236
v 0.478684 0.000000 -0.258168
v 0.487053 0.000000 -0.261076
v 0.495878 0.000000 -0.262880
v 0.505077 0.000000 -0.263499
v 0.514277 0.000000 -0.262880
v 0.523102 0.000000 -0.261076
v 0.531471 0.000000 -0.258168
v 0.539303 0.000000 -0.254236
v 0.546517 0.000000 -0.249364
v 0.553032 0.000000 -0.243630
v 0.558767 0.000000 -0.237116
v 0.563641 0.000000 -0.229904
v 0.567573 0.000000 -0.222073
v 0.570482 0.000000 -0.213706
v 0.572287 0.000000 -0.204883
v 0.572906 0.000000 -0.195685
v 0.572287 0.000000 -0.186487
v 0.570482 0.000000 -0.177664
v 0.567573 0.000000 -0.169297
v 0.563641 0.000000 -0.161466
v 0.558767 0.000000 -0.154254
v 0.553032 0.000000 -0.147740
v 0.546517 0.000000 -0.142006
v 0.539303 0.000000 -0.137133
v 0.531471 0.000000 -0.133202
v 0.523102 0.000000 -0.130294
v 0.514277 0.000000 -0.128490
v 0.505077 0.000000 -0.127871
v 0.495878 0.000000 -0.128490
v 0.487053 0.000000 -0.130294
v 0.478684 0.000000 -0.133202
v 0.470852 0.000000 -0.137133
v 0.463637 0.000000 -0.142006
v 0.457122 0.000000 -0.147740
v 0.451387 0.000000 -0.154254
v 0.446514 0.000000 -0.161466
v 0.442582 0.000000 -0.169297
v 0.439673 0.000000 -0.177664
v 0.437868 0.000000 -0.186487
vn -0.0000 1.0000 -0.0000
vt 0.234043 0.000000
vt 0.276596 0.000000
vt 0.255319 0.000000
vt 0.212766 0.000000
vt 0.297872 0.000000
vt 0.191489 0.000000
vt 0.319149 0.000000
vt 0.170213 0.000000
vt 0.340426 0.000000
vt 0.148936 0.000000
vt 0.361702 0.000000
vt 0.127660 0.000000
vt 0.382979 0.000000
vt 0.106383 0.000000
vt 0.404255 0.000000
vt 0.085106 0.000000
vt 0.425532 0.000000
vt 0.063830 0.000000
vt 0.446809 0.000000
vt 0.042553 0.000000
vt 0.468085 0.000000
vt 0.021277 0.000000
vt 0.489362 0.000000
vt 0.000000 0.000000
vt 0.510638 0.000000
vt 1.000000 0.000000
vt 0.531915 0.000000
vt 0.553191 0.000000
vt 0.978723 0.000000
vt 0.574468 0.000000
vt 0.957447 0.000000
vt 0.595745 0.000000
vt 0.936170 0.000000
vt 0.617021 0.000000
vt 0.914894 0.000000
vt 0.638298 0.000000
vt 0.893617 0.000000
vt 0.659574 0.000000
vt 0.872340 0.000000
vt 0.680851 0.000000
vt 0.851064 0.000000
vt 0.702128 0.000000
vt 0.829787 0.000000
vt 0.723404 0.000000
vt 0.808511 0.000000
vt 0.744681 0.000000
vt 0.787234 0.000000
vt 0.765957 0.000000
s 0
usemtl SVGMat.005
f 164/149/4 166/150/4 165/151/4
f 163/152/4 166/150/4 164/149/4
f 163/152/4 167/153/4 166/150/4
f 162/154/4 167/153/4 163/152/4
f 162/154/4 168/155/4 167/153/4
f 161/156/4 168/155/4 162/154/4
f 161/156/4 169/157/4 168/155/4
f 160/158/4 169/157/4 161/156/4
f 160/158/4 170/159/4 169/157/4
f 159/160/4 170/159/4 160/158/4
f 159/160/4 171/161/4 170/159/4
f 158/162/4 171/161/4 159/160/4
f 158/162/4 172/163/4 171/161/4
f 157/164/4 172/163/4 158/162/4
f 157/164/4 173/165/4 172/163/4
f 156/166/4 173/165/4 157/164/4
f 156/166/4 174/167/4 173/165/4
f 155/168/4 174/167/4 156/166/4
f 155/168/4 175/169/4 174/167/4
f 154/170/4 175/169/4 155/168/4
f 154/170/4 176/171/4 175/169/4
f 153/172/4 176/171/4 154/170/4
f 153/172/4 177/173/4 176/171/4
f 200/174/4 177/173/4 153/172/4
f 200/174/4 178/175/4 177/173/4
f 200/174/4 179/176/4 178/175/4
f 199/177/4 179/176/4 200/174/4
f 199/177/4 180/178/4 179/176/4
f 198/179/4 180/178/4 199/177/4
f 198/179/4 181/180/4 180/178/4
f 197/181/4 181/180/4 198/179/4
f 197/181/4 182/182/4 181/180/4
f 196/183/4 182/182/4 197/181/4
f 196/183/4 183/184/4 182/182/4
f 195/185/4 183/184/4 196/183/4
f 195/185/4 184/186/4 183/184/4
f 194/187/4 184/186/4 195/185/4
f 194/187/4 185/188/4 184/186/4
f 193/189/4 185/188/4 194/187/4
f 193/189/4 186/190/4 185/188/4
f 192/191/4 186/190/4 193/189/4
f 192/191/4 187/192/4 186/190/4
f 191/193/4 187/192/4 192/191/4
f 191/193/4 188/194/4 187/192/4
f 190/195/4 188/194/4 191/193/4
f 190/195/4 189/196/4 188/194/4
o rect1
v -0.423329 0.000000 -0.074008
v 0.431293 0.000000 -0.074008
v 0.447995 0.000000 -0.072802
v 0.461921 0.000000 -0.069468
v 0.473322 0.000000 -0.064432
v 0.482452 0.000000 -0.058118
v 0.489562 0.000000 -0.050953
v 0.494905 0.000000 -0.043363
v 0.498733 0.000000 -0.035773
v 0.501300 0.000000 -0.028608
v 0.502856 0.000000 -0.022294
v 0.503655 0.000000 -0.017258
v 0.503950 0.000000 -0.013924
v 0.503992 0.000000 -0.012717
v 0.503992 0.000000 0.014672
v 0.502562 0.000000 0.028753
v 0.498607 0.000000 0.040493
v 0.492633 0.000000 0.050106
v 0.485144 0.000000 0.057802
v 0.476646 0.000000 0.063797
v 0.467642 0.000000 0.068301
v 0.458639 0.000000 0.071529
v 0.450141 0.000000 0.073693
v 0.442652 0.000000 0.075005
v 0.436678 0.000000 0.075679
v 0.432723 0.000000 0.075927
v 0.431293 0.000000 0.075963
v -0.423329 0.000000 0.075963
v -0.440031 0.000000 0.074757
v -0.453957 0.000000 0.071423
v -0.465358 0.000000 0.066386
v -0.474488 0.000000 0.060073
v -0.481598 0.000000 0.052908
v -0.486941 0.000000 0.045317
v -0.490769 0.000000 0.037727
v -0.493335 0.000000 0.030562
v -0.494892 0.000000 0.024249
v -0.495691 0.000000 0.019212
v -0.495986 0.000000 0.015878
v -0.496028 0.000000 0.014672
v -0.496028 0.000000 -0.012717
v -0.494598 0.000000 -0.026798
v -0.490643 0.000000 -0.038539
v -0.484669 0.000000 -0.048151
v -0.477180 0.000000 -0.055848
v -0.468682 0.000000 -0.061842
v -0.459679 0.000000 -0.066347
v -0.450675 0.000000 -0.069574
v -0.442177 0.000000 -0.071738
v -0.434688 0.000000 -0.073050
v -0.428714 0.000000 -0.073724
v -0.424760 0.000000 -0.073973
vn -0.0000 1.0000 -0.0000
vt 1.000000 0.000000
vt 0.019608 0.000000
vt 0.000000 0.000000
vt 0.039216 0.000000
vt 0.980392 0.000000
vt 0.960784 0.000000
vt 0.941176 0.000000
vt 0.058824 0.000000
vt 0.921569 0.000000
vt 0.901961 0.000000
vt 0.078431 0.000000
vt 0.882353 0.000000
vt 0.098039 0.000000
vt 0.862745 0.000000
vt 0.117647 0.000000
vt 0.843137 0.000000
vt 0.137255 0.000000
vt 0.823529 0.000000
vt 0.156863 0.000000
vt 0.803922 0.000000
vt 0.176471 0.000000
vt 0.196078 0.000000
vt 0.784314 0.000000
vt 0.215686 0.000000
vt 0.235294 0.000000
vt 0.254902 0.000000
vt 0.764706 0.000000
vt 0.274510 0.000000
vt 0.745098 0.000000
vt 0.294118 0.000000
vt 0.725490 0.000000
vt 0.705882 0.000000
vt 0.686275 0.000000
vt 0.313726 0.000000
vt 0.666667 0.000000
vt 0.647059 0.000000
vt 0.333333 0.000000
vt 0.627451 0.000000
vt 0.352941 0.000000
vt 0.607843 0.000000
vt 0.372549 0.000000
vt 0.588235 0.000000
vt 0.392157 0.000000
vt 0.568627 0.000000
vt 0.411765 0.000000
vt 0.549020 0.000000
vt 0.431373 0.000000
vt 0.450980 0.000000
vt 0.529412 0.000000
vt 0.470588 0.000000
vt 0.490196 0.000000
vt 0.509804 0.000000
s 0
usemtl SVGMat.001
f 252/197/5 202/198/5 201/199/5
f 252/197/5 203/200/5 202/198/5
f 251/201/5 203/200/5 252/197/5
f 250/202/5 203/200/5 251/201/5
f 249/203/5 203/200/5 250/202/5
f 249/203/5 204/204/5 203/200/5
f 248/205/5 204/204/5 249/203/5
f 247/206/5 204/204/5 248/205/5
f 247/206/5 205/207/5 204/204/5
f 246/208/5 205/207/5 247/206/5
f 246/208/5 206/209/5 205/207/5
f 245/210/5 206/209/5 246/208/5
f 245/210/5 207/211/5 206/209/5
f 244/212/5 207/211/5 245/210/5
f 244/212/5 208/213/5 207/211/5
f 243/214/5 208/213/5 244/212/5
f 243/214/5 209/215/5 208/213/5
f 242/216/5 209/215/5 243/214/5
f 242/216/5 210/217/5 209/215/5
f 242/216/5 211/218/5 210/217/5
f 241/219/5 211/218/5 242/216/5
f 241/219/5 212/220/5 211/218/5
f 241/219/5 213/221/5 212/220/5
f 241/219/5 214/222/5 213/221/5
f 240/223/5 214/222/5 241/219/5
f 240/223/5 215/224/5 214/222/5
f 239/225/5 215/224/5 240/223/5
f 239/225/5 216/226/5 215/224/5
f 238/227/5 216/226/5 239/225/5
f 237/228/5 216/226/5 238/227/5
f 236/229/5 216/226/5 237/228/5
f 236/229/5 217/230/5 216/226/5
f 235/231/5 217/230/5 236/229/5
f 234/232/5 217/230/5 235/231/5
f 234/232/5 218/233/5 217/230/5
f 233/234/5 218/233/5 234/232/5
f 233/234/5 219/235/5 218/233/5
f 232/236/5 219/235/5 233/234/5
f 232/236/5 220/237/5 219/235/5
f 231/238/5 220/237/5 232/236/5
f 231/238/5 221/239/5 220/237/5
f 230/240/5 221/239/5 231/238/5
f 230/240/5 222/241/5 221/239/5
f 229/242/5 222/241/5 230/240/5
f 229/242/5 223/243/5 222/241/5
f 229/242/5 224/244/5 223/243/5
f 228/245/5 224/244/5 229/242/5
f 228/245/5 225/246/5 224/244/5
f 228/245/5 226/247/5 225/246/5
f 228/245/5 227/248/5 226/247/5
o rect1
v -0.423329 0.000000 -0.074008
v 0.431293 0.000000 -0.074008
v 0.447995 0.000000 -0.072802
v 0.461921 0.000000 -0.069468
v 0.473322 0.000000 -0.064432
v 0.482452 0.000000 -0.058118
v 0.489562 0.000000 -0.050953
v 0.494905 0.000000 -0.043363
v 0.498733 0.000000 -0.035773
v 0.501300 0.000000 -0.028608
v 0.502856 0.000000 -0.022294
v 0.503655 0.000000 -0.017258
v 0.503950 0.000000 -0.013924
v 0.503992 0.000000 -0.012717
v 0.503992 0.000000 0.014672
v 0.502562 0.000000 0.028753
v 0.498607 0.000000 0.040493
v 0.492633 0.000000 0.050106
v 0.485144 0.000000 0.057802
v 0.476646 0.000000 0.063797
v 0.467642 0.000000 0.068301
v 0.458639 0.000000 0.071529
v 0.450141 0.000000 0.073693
v 0.442652 0.000000 0.075005
v 0.436678 0.000000 0.075679
v 0.432723 0.000000 0.075927
v 0.431293 0.000000 0.075963
v -0.423329 0.000000 0.075963
v -0.440031 0.000000 0.074757
v -0.453957 0.000000 0.071423
v -0.465358 0.000000 0.066386
v -0.474488 0.000000 0.060073
v -0.481598 0.000000 0.052908
v -0.486941 0.000000 0.045317
v -0.490769 0.000000 0.037727
v -0.493335 0.000000 0.030562
v -0.494892 0.000000 0.024249
v -0.495691 0.000000 0.019212
v -0.495986 0.000000 0.015878
v -0.496028 0.000000 0.014672
v -0.496028 0.000000 -0.012717
v -0.494598 0.000000 -0.026798
v -0.490643 0.000000 -0.038539
v -0.484669 0.000000 -0.048151
v -0.477180 0.000000 -0.055848
v -0.468682 0.000000 -0.061842
v -0.459679 0.000000 -0.066347
v -0.450675 0.000000 -0.069574
v -0.442177 0.000000 -0.071738
v -0.434688 0.000000 -0.073050
v -0.428714 0.000000 -0.073724
v -0.424760 0.000000 -0.073973
vn -0.0000 1.0000 -0.0000
vt 1.000000 0.000000
vt 0.019608 0.000000
vt 0.000000 0.000000
vt 0.039216 0.000000
vt 0.980392 0.000000
vt 0.960784 0.000000
vt 0.941176 0.000000
vt 0.058824 0.000000
vt 0.921569 0.000000
vt 0.901961 0.000000
vt 0.078431 0.000000
vt 0.882353 0.000000
vt 0.098039 0.000000
vt 0.862745 0.000000
vt 0.117647 0.000000
vt 0.843137 0.000000
vt 0.137255 0.000000
vt 0.823529 0.000000
vt 0.156863 0.000000
vt 0.803922 0.000000
vt 0.176471 0.000000
vt 0.196078 0.000000
vt 0.784314 0.000000
vt 0.215686 0.000000
vt 0.235294 0.000000
vt 0.254902 0.000000
vt 0.764706 0.000000
vt 0.274510 0.000000
vt 0.745098 0.000000
vt 0.294118 0.000000
vt 0.725490 0.000000
vt 0.705882 0.000000
vt 0.686275 0.000000
vt 0.313726 0.000000
vt 0.666667 0.000000
vt 0.647059 0.000000
vt 0.333333 0.000000
vt 0.627451 0.000000
vt 0.352941 0.000000
vt 0.607843 0.000000
vt 0.372549 0.000000
vt 0.588235 0.000000
vt 0.392157 0.000000
vt 0.568627 0.000000
vt 0.411765 0.000000
vt 0.549020 0.000000
vt 0.431373 0.000000
vt 0.450980 0.000000
vt 0.529412 0.000000
vt 0.470588 0.000000
vt 0.490196 0.000000
vt 0.509804 0.000000
s 0
usemtl SVGMat.001
f 304/249/6 254/250/6 253/251/6
f 304/249/6 255/252/6 254/250/6
f 303/253/6 255/252/6 304/249/6
f 302/254/6 255/252/6 303/253/6
f 301/255/6 255/252/6 302/254/6
f 301/255/6 256/256/6 255/252/6
f 300/257/6 256/256/6 301/255/6
f 299/258/6 256/256/6 300/257/6
f 299/258/6 257/259/6 256/256/6
f 298/260/6 257/259/6 299/258/6
f 298/260/6 258/261/6 257/259/6
f 297/262/6 258/261/6 298/260/6
f 297/262/6 259/263/6 258/261/6
f 296/264/6 259/263/6 297/262/6
f 296/264/6 260/265/6 259/263/6
f 295/266/6 260/265/6 296/264/6
f 295/266/6 261/267/6 260/265/6
f 294/268/6 261/267/6 295/266/6
f 294/268/6 262/269/6 261/267/6
f 294/268/6 263/270/6 262/269/6
f 293/271/6 263/270/6 294/268/6
f 293/271/6 264/272/6 263/270/6
f 293/271/6 265/273/6 264/272/6
f 293/271/6 266/274/6 265/273/6
f 292/275/6 266/274/6 293/271/6
f 292/275/6 267/276/6 266/274/6
f 291/277/6 267/276/6 292/275/6
f 291/277/6 268/278/6 267/276/6
f 290/279/6 268/278/6 291/277/6
f 289/280/6 268/278/6 290/279/6
f 288/281/6 268/278/6 289/280/6
f 288/281/6 269/282/6 268/278/6
f 287/283/6 269/282/6 288/281/6
f 286/284/6 269/282/6 287/283/6
f 286/284/6 270/285/6 269/282/6
f 285/286/6 270/285/6 286/284/6
f 285/286/6 271/287/6 270/285/6
f 284/288/6 271/287/6 285/286/6
f 284/288/6 272/289/6 271/287/6
f 283/290/6 272/289/6 284/288/6
f 283/290/6 273/291/6 272/289/6
f 282/292/6 273/291/6 283/290/6
f 282/292/6 274/293/6 273/291/6
f 281/294/6 274/293/6 282/292/6
f 281/294/6 275/295/6 274/293/6
f 281/294/6 276/296/6 275/295/6
f 280/297/6 276/296/6 281/294/6
f 280/297/6 277/298/6 276/296/6
f 280/297/6 278/299/6 277/298/6
f 280/297/6 279/300/6 278/299/6
